<svg width="89" height="53" viewBox="0 0 89 53" fill="none" xmlns="http://www.w3.org/2000/svg">
<path d="M62.8243 0.000619278C55.9592 0.0471319 49.3891 2.82919 44.5393 7.74324C39.7428 12.6063 37.0114 19.1699 36.9261 26.0381C36.8408 32.9062 39.4082 39.5371 44.0825 44.5205L52.9639 35.5388C50.6426 32.9366 49.3981 29.5322 49.4875 26.0287C49.5769 22.5252 50.9934 19.1903 53.4443 16.7126C55.8953 14.2349 59.1935 12.8037 62.6579 12.7146C66.1223 12.6254 69.4882 13.8852 72.0606 16.2337L80.9494 7.23734C76.0592 2.5474 69.5636 -0.0460567 62.8243 0.000619278ZM26.218 0.0373709C19.4776 -0.00748141 12.9817 2.58859 8.09252 7.28122L16.9595 16.2483C19.5312 13.8949 22.8994 12.6318 26.3666 12.7205C29.8338 12.8092 33.1345 14.243 35.5852 16.7249L42.0158 5.57301L41.6461 5.27225C37.1871 1.90789 31.7812 0.0736017 26.218 0.0373709ZM81.8772 8.18314L73.0173 17.1502C75.3545 19.7498 76.6124 23.1595 76.5299 26.672C76.4474 30.1845 75.0308 33.53 72.5742 36.0144C70.1175 38.4988 66.8094 39.9313 63.3361 40.0147C59.8628 40.0982 56.4911 38.8261 53.9206 36.4625L44.9958 45.4884C49.9337 50.2027 56.4943 52.7844 63.2842 52.6852C70.0741 52.5861 76.5583 49.8139 81.3596 44.9575C86.1608 40.1011 88.9007 33.5432 88.9974 26.6766C89.094 19.81 86.5398 13.1758 81.8772 8.18314ZM7.1647 8.21989C2.56587 13.1195 0.00138049 19.6169 5.57189e-07 26.3723C-0.00137938 33.1277 2.56046 39.6261 7.15729 44.5276L16.0461 35.5385C13.7936 33.0275 12.5447 29.7594 12.5419 26.3692C12.5392 22.9789 13.7829 19.7087 16.0313 17.1941L7.1647 8.21989ZM35.5852 36.0594C30.4677 41.2406 22.2861 41.3509 16.9814 36.4846L8.09252 45.4663C17.2495 54.2147 31.3177 55.1242 41.494 47.512L42.0013 47.0939L35.5852 36.0594Z" fill="#FFFF00"/>
</svg>
